<?xml version="1.0" encoding="utf-8"?>
<!-- Generator: Adobe Illustrator 26.2.1, SVG Export Plug-In . SVG Version: 6.00 Build 0)  -->
<svg version="1.1" id="Layer_1" xmlns="http://www.w3.org/2000/svg" xmlns:xlink="http://www.w3.org/1999/xlink" x="0px" y="0px"
	 viewBox="0 0 212 81" style="enable-background:new 0 0 212 81;" xml:space="preserve">
<style type="text/css">
	.st0{fill:#CF1020;}
	.st1{fill:#CF1020;stroke:#CF1020;stroke-width:0.25;stroke-miterlimit:10;}
</style>
<path class="st0" d="M60.01,22.58H29.47c-1.44,0-2.61,1.18-2.61,2.63v30.82c0,1.45,1.17,2.63,2.61,2.63h30.54
	c1.44,0,2.61-1.18,2.61-2.63V25.21C62.61,23.76,61.44,22.58,60.01,22.58 M49.21,45.1c0,0.2-0.08,0.39-0.22,0.53l-8.72,8.72V36.78
	c0-0.2,0.08-0.39,0.22-0.53l8.72-8.72V45.1z"/>
<path class="st1" d="M74.8,37.27c1.85,0,3.14-0.98,3.14-2.56V33.8c0-1.34-0.94-1.82-0.94-1.82s0.83-0.42,0.83-1.6
	c0-1.37-0.89-1.88-2.59-2.2c-0.75-0.13-1.31-0.36-1.38-0.71h-1.15c0.07,1.03,0.74,1.35,2.39,1.65c0.95,0.17,1.57,0.51,1.57,1.22
	c0,0.72-0.51,1.14-1.57,1.14h-0.82v1.09h0.89c1.09,0,1.6,0.47,1.6,1.29v0.86c0,0.95-0.74,1.43-1.94,1.43
	c-1.19,0-1.92-0.55-1.92-1.52v-0.56h-1.18v0.56C71.71,36.24,72.98,37.27,74.8,37.27"/>
<path class="st1" d="M79.98,37.1h1.17c-0.29-1.35-0.35-2.03-0.35-3.67V30.6c0-1.29,0.68-2,2.15-2c1.46,0,2.15,0.71,2.15,2v2.83
	c0,1.65-0.04,2.32-0.34,3.67h1.15c0.27-1.09,0.36-2,0.36-3.53V30.5c0-1.86-1.21-3.03-3.33-3.03c-2.12,0-3.33,1.17-3.33,3.03v3.07
	C79.61,35.1,79.71,36.01,79.98,37.1"/>
<path class="st1" d="M88.24,37.1h1.17c-0.28-1.21-0.35-1.88-0.35-3.21c0.03-1.18,0.62-1.73,1.7-1.73c1.11,0,1.62,0.59,1.66,1.78v1.3
	h1.18v-1.3c0.04-1.19,0.56-1.78,1.68-1.78c1.13,0,1.7,0.59,1.7,1.84c-0.01,1.26-0.08,1.92-0.35,3.1h1.15
	c0.26-0.99,0.36-1.85,0.38-3.17c0-1.97-1.05-2.86-2.76-2.86c-1.9,0-2.39,1.09-2.39,1.09s-0.29-1.09-2.2-1.09
	c-0.75,0-1.31,0.2-1.76,0.67v-0.12c-0.08-1.39,0.79-2.23,2.53-2.23h1.07c2.21,0,3.71-0.46,3.85-1.93h-1.14
	c-0.07,0.62-1.37,0.8-2.25,0.8h-1.41c-2.51,0-3.84,1.22-3.84,3.25v2.63C87.9,35.34,88.01,36.16,88.24,37.1"/>
<path class="st1" d="M102.86,37.27c1.85,0,3.14-0.98,3.14-2.56V33.8c0-0.75-0.32-1.37-0.95-1.82c0.54-0.39,0.84-0.97,0.84-1.66
	v-0.35c0-1.54-1.17-2.49-2.99-2.49c-1.82,0-2.98,1.03-2.98,2.63v0.52h1.18V30.1c0-0.97,0.6-1.5,1.8-1.5c1.18,0,1.82,0.46,1.82,1.37
	v0.3c0,0.78-0.51,1.22-1.57,1.22h-0.83v1.09h0.9c1.09,0,1.6,0.47,1.6,1.29v0.86c0,0.95-0.74,1.43-1.94,1.43
	c-1.19,0-1.92-0.55-1.92-1.52v-0.56h-1.18v0.56C99.77,36.24,101.03,37.27,102.86,37.27"/>
<path class="st1" d="M111.01,37.27c2.12,0,3.31-1.15,3.31-2.99V30.5c0-1.86-1.17-3.03-3.29-3.03c-2.12,0-3.26,1.17-3.26,3.03v0.12
	h1.18c0-1.29,0.62-2.03,2.09-2.03c1.46,0,2.09,0.71,2.09,2v3.58c0,1.27-0.67,1.97-2.15,1.97c-1.46,0-2.15-0.7-2.15-1.97v-0.11h-1.18
	v0.21C107.67,36.12,108.88,37.27,111.01,37.27"/>
<path class="st1" d="M126.98,37.27h1.3c-0.13-1.17-0.93-1.93-3.8-1.93h-5.24c-1.35,0-2.13-0.71-2.13-1.9v-2.91
	c0-1.39,0.67-1.93,1.46-1.93c0.79,0,1.49,0.54,1.49,1.69v2.75h1.18v-2.75c0-1.15,0.67-1.69,1.48-1.69c0.79,0,1.42,0.54,1.48,1.69
	v2.75h1.18v-2.75c0.05-1.15,0.62-1.69,1.48-1.69c0.86,0,1.5,0.54,1.5,2.15c0,1.65-0.04,2.32-0.36,3.67h1.17
	c0.28-1.09,0.38-2.76,0.38-3.53c0-2.33-0.64-3.42-2.52-3.42c-1.89,0-2.2,1.11-2.2,1.11s-0.47-1.11-2.09-1.11
	c-1.61,0-2.07,1.11-2.07,1.11s-0.44-1.11-2.25-1.11c-1.8,0-2.47,1.25-2.47,3.42v2.61c0,1.74,1.21,2.96,3.31,2.96h5.32
	C125.6,36.47,126.9,36.54,126.98,37.27"/>
<path class="st1" d="M131.79,37.19h1.17c-0.29-1.35-0.35-2.03-0.35-3.67v-2.83c0-1.29,0.68-2,2.15-2c1.46,0,2.15,0.71,2.15,2v2.83
	c0,1.65-0.04,2.32-0.34,3.67h1.15c0.27-1.09,0.36-2,0.36-3.53v-3.07c0-1.86-1.21-3.03-3.33-3.03c-2.12,0-3.33,1.17-3.33,3.03v3.07
	C131.43,35.19,131.52,36.1,131.79,37.19"/>
<path class="st1" d="M74.79,51.47c2.12,0,3.31-1.15,3.31-2.99V45.8c0-1.76-1.11-2.51-2.63-2.9c-1.52-0.4-1.69-0.83-1.74-1.07h-1.22
	c0,1.18,0.98,1.65,2.51,2.08c1.54,0.44,1.9,1.03,1.9,1.9v2.56c0,1.27-0.67,1.97-2.15,1.97c-1.46,0-2.15-0.7-2.15-1.97v-0.54h-1.18
	v0.64C71.45,50.32,72.65,51.47,74.79,51.47"/>
<path class="st1" d="M79.94,51.3h1.17c-0.28-1.21-0.35-1.88-0.35-3.21c0.03-1.18,0.62-1.73,1.7-1.73c1.11,0,1.62,0.59,1.66,1.78v1.3
	h1.18v-1.3c0.04-1.19,0.56-1.78,1.68-1.78c1.13,0,1.7,0.59,1.7,1.84c-0.01,1.26-0.08,1.92-0.35,3.1h1.15
	c0.25-0.99,0.36-1.85,0.38-3.17c0-1.97-1.05-2.86-2.76-2.86c-1.9,0-2.39,1.09-2.39,1.09s-0.29-1.09-2.2-1.09
	c-0.75,0-1.31,0.2-1.76,0.67v-0.12c-0.08-1.39,0.79-2.23,2.53-2.23h1.07c2.21,0,3.71-0.46,3.85-1.93h-1.14
	c-0.07,0.62-1.37,0.8-2.25,0.8h-1.41c-2.51,0-3.84,1.22-3.84,3.25v2.63C79.6,49.54,79.71,50.36,79.94,51.3"/>
<path class="st1" d="M94.8,50.34c-1.46,0-2.15-0.7-2.15-1.97v-0.42c0.13-1.07,1.13-1.56,2.17-1.56c1.19,0,2.11,0.56,2.11,1.9v0.29
	C96.93,49.69,96.18,50.34,94.8,50.34 M94.81,51.47c2.05,0,3.31-1.13,3.31-2.9v-0.34c0-2.11-1.35-2.96-3.08-2.96
	c-0.86,0-1.89,0.25-2.39,0.8v-4.25h-1.18v6.65C91.47,50.32,92.68,51.47,94.81,51.47z"/>
<path class="st1" d="M99.89,51.3h1.17c-0.29-1.35-0.35-2.03-0.35-3.67v-2.83c0-1.29,0.68-2,2.15-2c1.46,0,2.15,0.71,2.15,2v2.83
	c0,1.65-0.04,2.32-0.34,3.67h1.15c0.27-1.09,0.36-2,0.36-3.53V44.7c0-1.86-1.21-3.03-3.33-3.03c-2.12,0-3.33,1.17-3.33,3.03v3.07
	C99.53,49.3,99.62,50.21,99.89,51.3"/>
</svg>
